<svg width="398" height="71" viewBox="0 0 398 71" fill="none" xmlns="http://www.w3.org/2000/svg">
<path d="M116.017 8.29614H87V39.6911H116.017V8.29614Z" fill="black"/>
<path d="M87 67.9942V39.6911M87 39.6911V8.29614H116.017V39.6911H87Z" stroke="black" stroke-width="9.51363"/>
<path d="M116.017 8.29614H87V39.6911H116.017V8.29614Z" fill="black"/>
<path d="M87 67.9942V39.6911M87 39.6911V8.29614H116.017V39.6911H87Z" stroke="black" stroke-width="9.51363"/>
<path d="M310.549 10.2227H282.466V40.6076H310.549V10.2227Z" fill="black"/>
<path d="M282.466 68.0001V40.6076M282.466 40.6076V10.2227H310.549V40.6076H282.466Z" stroke="black" stroke-width="9.20756"/>
<path d="M310.549 10.2227H282.466V40.6076H310.549V10.2227Z" fill="black"/>
<path d="M282.466 68.0001V40.6076M282.466 40.6076V10.2227H310.549V40.6076H282.466Z" stroke="black" stroke-width="9.20756"/>
<path d="M147.376 17.3342L131.238 63.4753H163.969L147.376 17.3342Z" fill="black" stroke="black" stroke-width="9.09184"/>
<path d="M147.376 17.3342L131.238 63.4753H163.969L147.376 17.3342Z" fill="black" stroke="black" stroke-width="9.09184"/>
<path d="M340.9 19.8906L325.281 64.5473H356.959L340.9 19.8906Z" fill="black" stroke="black" stroke-width="8.79935"/>
<path d="M340.9 19.8906L325.281 64.5473H356.959L340.9 19.8906Z" fill="black" stroke="black" stroke-width="8.79935"/>
<path d="M208.03 8.29614H188.796V36.234H214.177V64.9022H193.824" stroke="black" stroke-width="7.30401"/>
<path d="M208.03 8.29614H188.796V36.234H214.177V64.9022H193.824" stroke="black" stroke-width="7.30401"/>
<path d="M252.833 8.29614H233.599V36.234H258.981V64.9022H238.628" stroke="black" stroke-width="7.30401"/>
<path d="M252.833 8.29614H233.599V36.234H258.981V64.9022H238.628" stroke="black" stroke-width="7.30401"/>
<path d="M380.987 7V65.0076H397.813" stroke="black" stroke-width="7.06903"/>
<path d="M380.987 7V65.0076H397.813" stroke="black" stroke-width="7.06903"/>
<path d="M55 67.5V4H4V67.5H55Z" stroke="black" stroke-width="6.2443"/>
<path d="M44 19L20 45.5M16 30L38.5 49.5" stroke="#EC0000" stroke-width="6.2443"/>
</svg>
